<svg id="Calque_1" data-name="Calque 1" xmlns="http://www.w3.org/2000/svg" viewBox="0 0 75.61 75.57"><title>icone</title><path d="M49.27,11.86a37.79,37.79,0,1,0,37.8,37.77A37.81,37.81,0,0,0,49.27,11.86Zm0,4.18A33.61,33.61,0,1,1,15.65,49.62,33.54,33.54,0,0,1,49.27,16Zm0,5.15a28.44,28.44,0,1,0,28.4,28.44,28.48,28.48,0,0,0-28.4-28.44Zm0,4.18A24.24,24.24,0,1,1,25,49.62,24.23,24.23,0,0,1,49.27,25.37Zm0,5.15A19.11,19.11,0,1,0,68.38,49.62,19.11,19.11,0,0,0,49.27,30.52Z" transform="translate(-11.47 -11.86)"/></svg>